# xmcd CD database file
#
# Track frame offsets:
#	150
#	8617
#	31257
#	57045
#	108677
#	131180
#	154540
#	184445
#	218917
#	241987
#	262840
#	298037
#	336425
#
# Disc length: 4799 seconds
#
# Revision: 0
# Processed by: cddbd v1.5.1PL0 Copyright (c) Steve Scherf et al.
# Submitted via: CDex 1.51
#
DISCID=bb12bd0d
DTITLE=orange pekoe - Live 2004 -from Poetic Ore tour-
DYEAR=2005
DGENRE=Jazz
TTITLE0=Introduction
TTITLE1=彼方へ
TTITLE2=ソングバード
TTITLE3=メトロ
TTITLE4=やわらかな夜
TTITLE5=太陽のかけら
TTITLE6=にわか雨
TTITLE7=Heavenly Summer
TTITLE8=Honeysuckle
TTITLE9=Happy Valley
TTITLE10=よろこびのうた
TTITLE11=Beautiful Thing
TTITLE12=空に架けるcircle
EXTD=YEAR: 2005
EXTT0=
EXTT1=
EXTT2=
EXTT3=
EXTT4=
EXTT5=
EXTT6=
EXTT7=
EXTT8=
EXTT9=
EXTT10=
EXTT11=
EXTT12=
PLAYORDER=
